<?xml version="1.0" encoding="utf-8"?>
<!-- Generator: Adobe Illustrator 24.3.0, SVG Export Plug-In . SVG Version: 6.00 Build 0)  -->
<svg version="1.1" id="Layer_1" xmlns="http://www.w3.org/2000/svg" xmlns:xlink="http://www.w3.org/1999/xlink" x="0px" y="0px"
	 viewBox="0 0 300 300" enable-background="new 0 0 300 300" xml:space="preserve">
<g>
	<g>
		<g>
			<path fill="#7FD3B9" d="M137.665,237.716c-1.044-6.526-5.515-10.965-12.335-10.965c-6.821,0-11.291,4.438-12.335,10.965
				c-5.488,0-8.223,4.363-8.223,8.454c0,4.406,3.582,7.993,7.999,7.993c2.056,0,23.064,0,25.12,0c4.417,0,7.999-3.587,7.999-7.993
				C145.888,242.079,143.153,237.716,137.665,237.716z"/>
		</g>
		<g>
			<path fill="#BBEAD9" d="M110.254,246.17c0-4.09,2.736-8.454,8.223-8.454c0.894-5.6,4.331-9.642,9.594-10.681
				c-0.867-0.172-1.772-0.284-2.741-0.284c-6.821,0-11.291,4.438-12.335,10.965c-5.488,0-8.223,4.363-8.223,8.454
				c0,4.406,3.582,7.993,7.999,7.993c0.583,0,2.714,0,5.482,0C113.835,254.163,110.254,250.576,110.254,246.17z"/>
		</g>
		<g>
			<path fill="#7FD3B9" d="M150,224.01c0,4.54-2.452,8.223-5.482,8.223c-3.03,0-5.482-3.684-5.482-8.223
				c0-4.54,2.452-8.223,5.482-8.223C147.548,215.787,150,219.471,150,224.01z"/>
		</g>
		<g>
			<path fill="#7FD3B9" d="M111.624,224.01c0,4.54-2.452,8.223-5.482,8.223c-3.03,0-5.482-3.684-5.482-8.223
				c0-4.54,2.452-8.223,5.482-8.223C109.172,215.787,111.624,219.471,111.624,224.01z"/>
		</g>
		<g>
			<path fill="#7FD3B9" d="M122.589,213.046c0,4.54-2.452,8.223-5.482,8.223c-3.03,0-5.482-3.684-5.482-8.223
				c0-4.54,2.452-8.223,5.482-8.223C120.136,204.822,122.589,208.506,122.589,213.046z"/>
		</g>
		<g>
			<ellipse fill="#7FD3B9" cx="133.553" cy="213.046" rx="5.482" ry="8.223"/>
		</g>
		<g>
			<path fill="#BBEAD9" d="M106.142,224.01c0-3.036,1.108-5.659,2.741-7.083c-0.809-0.707-1.735-1.14-2.741-1.14
				c-3.03,0-5.482,3.684-5.482,8.223c0,4.54,2.452,8.223,5.482,8.223c1.007,0,1.932-0.434,2.741-1.14
				C107.25,229.669,106.142,227.046,106.142,224.01z"/>
		</g>
		<g>
			<path fill="#BBEAD9" d="M144.518,224.01c0-3.036,1.108-5.659,2.741-7.083c-0.809-0.707-1.735-1.14-2.741-1.14
				c-3.03,0-5.482,3.684-5.482,8.223c0,4.54,2.452,8.223,5.482,8.223c1.007,0,1.932-0.434,2.741-1.14
				C145.626,229.669,144.518,227.046,144.518,224.01z"/>
		</g>
		<g>
			<path fill="#BBEAD9" d="M133.553,213.046c0-3.036,1.108-5.659,2.741-7.083c-0.809-0.707-1.735-1.14-2.741-1.14
				c-3.03,0-5.482,3.684-5.482,8.223c0,4.54,2.452,8.223,5.482,8.223c1.007,0,1.932-0.434,2.741-1.14
				C134.661,218.705,133.553,216.081,133.553,213.046z"/>
		</g>
		<g>
			<path fill="#BBEAD9" d="M117.107,213.046c0-3.036,1.108-5.659,2.741-7.083c-0.809-0.707-1.735-1.14-2.741-1.14
				c-3.03,0-5.482,3.684-5.482,8.223c0,4.54,2.452,8.223,5.482,8.223c1.007,0,1.932-0.434,2.741-1.14
				C118.215,218.705,117.107,216.081,117.107,213.046z"/>
		</g>
		<g>
			<path fill="#7FD3B9" d="M237.716,95.177v46.599c0,19.68-15.954,35.635-35.635,35.635c-19.68,0-35.635-15.954-35.635-35.635
				V95.177h-21.929v47.755c0,31.154,25.253,56.407,56.407,56.407h2.312c31.154,0,56.407-25.253,56.407-56.407V95.177H237.716z"/>
		</g>
		<g>
			<g>
				<path fill="#BBEAD9" d="M213.046,177.411c19.68,0,35.635-15.954,35.635-35.635V95.177h-10.964v46.599
					c0,17.812-13.079,32.53-30.152,35.169C209.357,177.224,211.178,177.411,213.046,177.411z"/>
			</g>
			<g>
				<path fill="#BBEAD9" d="M155.482,142.933V95.177h-10.964v47.755c0,31.154,25.253,56.407,56.407,56.407h2.312
					c1.462,0,2.891-0.107,4.326-0.219C178.439,196.904,155.482,172.625,155.482,142.933z"/>
			</g>
		</g>
		<g>
			<path fill="#7FD3B9" d="M203.238,199.34h-2.312c-6.312,0-12.362-1.082-18.032-2.998v19.445h38.376v-19.445
				C215.6,198.259,209.55,199.34,203.238,199.34z"/>
		</g>
		<g>
			<g>
				<path fill="#BBEAD9" d="M203.238,199.34h-2.312c-6.312,0-12.362-1.082-18.032-2.998v19.445h21.929v-16.516
					C204.292,199.286,203.773,199.34,203.238,199.34z"/>
			</g>
		</g>
		<g>
			<circle fill="#7FD3B9" cx="226.751" cy="29.39" r="10.964"/>
		</g>
		<g>
			<path fill="#E5E5E4" d="M243.198,34.873v60.305h10.964V29.39c0-3.03-2.452-5.482-5.482-5.482h-12.485
				c0.942,1.617,1.52,3.475,1.52,5.482s-0.578,3.866-1.52,5.482H243.198z"/>
		</g>
		<g>
			<circle fill="#7FD3B9" cx="177.411" cy="29.39" r="10.964"/>
		</g>
		<g>
			<path fill="#BBEAD9" d="M171.929,29.39c0-5.107,3.501-9.358,8.223-10.579c-0.883-0.225-1.788-0.385-2.741-0.385
				c-6.061,0-10.965,4.904-10.965,10.964c0,6.061,4.904,10.965,10.965,10.965c0.953,0,1.858-0.161,2.741-0.385
				C175.43,38.749,171.929,34.498,171.929,29.39z"/>
		</g>
		<g>
			<path fill="#BBEAD9" d="M221.269,29.39c0-5.107,3.501-9.358,8.223-10.579c-0.883-0.225-1.788-0.385-2.741-0.385
				c-6.061,0-10.964,4.904-10.964,10.964c0,6.061,4.904,10.965,10.964,10.965c0.953,0,1.858-0.161,2.741-0.385
				C224.771,38.749,221.269,34.498,221.269,29.39z"/>
		</g>
		<g>
			<path fill="#E5E5E4" d="M160.964,34.873v60.305H150V29.39c0-3.03,2.452-5.482,5.482-5.482h12.485
				c-0.942,1.617-1.52,3.475-1.52,5.482s0.578,3.866,1.52,5.482H160.964z"/>
		</g>
		<g>
			<path fill="#EFEFEF" d="M160.964,23.908h-5.482c-3.03,0-5.482,2.452-5.482,5.482v65.787h5.482V29.39
				C155.482,26.361,157.934,23.908,160.964,23.908z"/>
		</g>
		<g>
			
				<ellipse transform="matrix(0.7071 -0.7071 0.7071 0.7071 -82.8115 83.6287)" fill="#7FD3B9" cx="59.543" cy="141.777" rx="19.188" ry="19.188"/>
		</g>
		<g>
			<path fill="#BBEAD9" d="M51.32,141.777c0-8.678,5.798-15.922,13.706-18.299c-1.746-0.519-3.566-0.889-5.482-0.889
				c-10.595,0-19.188,8.593-19.188,19.188s8.593,19.188,19.188,19.188c1.917,0,3.737-0.369,5.482-0.889
				C57.118,157.699,51.32,150.455,51.32,141.777z"/>
		</g>
		<g>
			<path fill="#E5E5E4" d="M193.858,215.787v19.552c0,16.425-13.363,29.788-29.788,29.788H97.555
				c-16.425,0-29.788-13.363-29.788-29.788v-76.291c-2.501,1.194-5.268,1.917-8.223,1.917c-2.956,0-5.723-0.723-8.223-1.917v76.291
				c0,25.495,20.74,46.235,46.235,46.235h66.515c25.495,0,46.235-20.74,46.235-46.235v-19.552H193.858z"/>
		</g>
		<g>
			<path fill="#EFEFEF" d="M204.822,235.339v-19.552h-10.964v19.552c0,16.425-13.363,29.788-29.788,29.788h10.965
				C191.46,265.127,204.822,251.764,204.822,235.339z"/>
		</g>
		<g>
			<path fill="#EFEFEF" d="M62.284,235.339v-74.701c-0.905,0.139-1.793,0.327-2.741,0.327c-2.956,0-5.723-0.723-8.223-1.917v76.291
				c0,25.495,20.74,46.235,46.235,46.235h10.965C83.024,281.574,62.284,260.833,62.284,235.339z"/>
		</g>
		<g>
			<circle fill="#E5E5E4" cx="59.543" cy="141.777" r="8.223"/>
		</g>
	</g>
	<g>
		<g>
			<path fill="#161616" d="M137.665,237.716c-1.044-6.526-5.515-10.965-12.335-10.965c-6.821,0-11.291,4.438-12.335,10.965
				c-5.488,0-8.223,4.363-8.223,8.454c0,4.406,3.582,7.993,7.999,7.993c2.056,0,23.064,0,25.12,0c4.417,0,7.999-3.587,7.999-7.993
				C145.888,242.079,143.153,237.716,137.665,237.716z"/>
		</g>
		<g>
			<path fill="#161616" d="M150,224.01c0,4.54-2.452,8.223-5.482,8.223c-3.03,0-5.482-3.684-5.482-8.223
				c0-4.54,2.452-8.223,5.482-8.223C147.548,215.787,150,219.471,150,224.01z"/>
		</g>
		<g>
			<path fill="#161616" d="M111.624,224.01c0,4.54-2.452,8.223-5.482,8.223c-3.03,0-5.482-3.684-5.482-8.223
				c0-4.54,2.452-8.223,5.482-8.223C109.172,215.787,111.624,219.471,111.624,224.01z"/>
		</g>
		<g>
			<path fill="#161616" d="M122.589,213.046c0,4.54-2.452,8.223-5.482,8.223c-3.03,0-5.482-3.684-5.482-8.223
				c0-4.54,2.452-8.223,5.482-8.223C120.136,204.822,122.589,208.506,122.589,213.046z"/>
		</g>
		<g>
			<ellipse fill="#161616" cx="133.553" cy="213.046" rx="5.482" ry="8.223"/>
		</g>
		<g>
			<path fill="#161616" d="M221.269,221.269h-38.376c-3.03,0-5.482-2.452-5.482-5.482v-19.445c0-1.767,0.851-3.426,2.286-4.454
				c1.435-1.023,3.282-1.301,4.952-0.739c5.316,1.799,10.793,2.709,16.275,2.709h2.313c5.482,0,10.959-0.91,16.275-2.709
				c1.67-0.562,3.523-0.284,4.952,0.739c1.435,1.028,2.286,2.688,2.286,4.454v19.445
				C226.751,218.817,224.299,221.269,221.269,221.269z M188.376,210.305h27.411v-6.788c-4.144,0.867-8.341,1.306-12.549,1.306
				h-2.313c-4.208,0-8.405-0.439-12.549-1.306V210.305z"/>
		</g>
		<g>
			<path fill="#161616" d="M226.751,45.837c-9.069,0-16.447-7.377-16.447-16.447c0-9.069,7.377-16.447,16.447-16.447
				c9.069,0,16.447,7.378,16.447,16.447C243.198,38.46,235.821,45.837,226.751,45.837z M226.751,23.908
				c-3.025,0-5.482,2.457-5.482,5.482c0,3.025,2.457,5.482,5.482,5.482s5.482-2.457,5.482-5.482
				C232.234,26.366,229.776,23.908,226.751,23.908z"/>
		</g>
		<g>
			<path fill="#161616" d="M243.198,34.873v60.305h10.964V29.39c0-3.03-2.452-5.482-5.482-5.482h-12.485
				c0.942,1.617,1.52,3.475,1.52,5.482s-0.578,3.866-1.52,5.482H243.198z"/>
		</g>
		<g>
			<path fill="#161616" d="M177.411,45.837c-9.069,0-16.447-7.377-16.447-16.447c0-9.069,7.378-16.447,16.447-16.447
				c9.069,0,16.447,7.378,16.447,16.447C193.858,38.46,186.48,45.837,177.411,45.837z M177.411,23.908
				c-3.025,0-5.482,2.457-5.482,5.482c0,3.025,2.457,5.482,5.482,5.482s5.482-2.457,5.482-5.482
				C182.893,26.366,180.436,23.908,177.411,23.908z"/>
		</g>
		<g>
			<path fill="#161616" d="M160.964,34.873v60.305H150V29.39c0-3.03,2.452-5.482,5.482-5.482h12.485
				c-0.942,1.617-1.52,3.475-1.52,5.482s0.578,3.866,1.52,5.482H160.964z"/>
		</g>
		<g>
			<path fill="#161616" d="M59.543,166.447c-13.604,0-24.67-11.066-24.67-24.67s11.066-24.67,24.67-24.67
				c13.604,0,24.67,11.066,24.67,24.67S73.147,166.447,59.543,166.447z M59.543,128.071c-7.56,0-13.706,6.146-13.706,13.706
				c0,7.56,6.146,13.706,13.706,13.706s13.706-6.146,13.706-13.706C73.249,134.217,67.103,128.071,59.543,128.071z"/>
		</g>
		<g>
			<circle fill="#161616" cx="59.543" cy="141.777" r="8.223"/>
		</g>
		<g>
			<path fill="#161616" d="M203.238,204.822h-2.313c-34.125,0-61.889-27.765-61.889-61.889V95.177c0-3.03,2.452-5.482,5.482-5.482
				h21.929c3.03,0,5.482,2.452,5.482,5.482v46.599c0,16.623,13.529,30.152,30.152,30.152s30.152-13.529,30.152-30.152V95.177
				c0-3.03,2.452-5.482,5.482-5.482h21.929c3.03,0,5.482,2.452,5.482,5.482v16.447c0,3.03-2.452,5.482-5.482,5.482
				c-3.03,0-5.482-2.452-5.482-5.482V100.66h-10.964v41.117c0,22.673-18.444,41.117-41.117,41.117s-41.117-18.444-41.117-41.117
				V100.66H150v42.273c0,28.081,22.844,50.925,50.925,50.925h2.313c28.081,0,50.925-22.844,50.925-50.925v-9.38
				c0-3.03,2.452-5.482,5.482-5.482c3.03,0,5.482,2.452,5.482,5.482v9.38C265.127,177.058,237.363,204.822,203.238,204.822z"/>
		</g>
		<g>
			<path fill="#161616" d="M164.07,287.056H97.555c-28.519,0-51.717-23.198-51.717-51.717V199.34c0-3.03,2.452-5.482,5.482-5.482
				s5.482,2.452,5.482,5.482v35.999c0,22.47,18.283,40.753,40.753,40.753h66.515c22.47,0,40.753-18.283,40.753-40.753v-14.07h-5.482
				v14.07c0,19.45-15.82,35.271-35.271,35.271H97.555c-19.45,0-35.271-15.82-35.271-35.271v-69.053c-1.82,0.214-3.662,0.214-5.482,0
				v11.125c0,3.03-2.452,5.482-5.482,5.482s-5.482-2.452-5.482-5.482v-18.363c0-1.885,0.964-3.635,2.559-4.636
				c1.59-1.001,3.587-1.124,5.284-0.311c3.844,1.831,7.881,1.831,11.725,0c1.697-0.814,3.694-0.691,5.284,0.311
				c1.595,1.001,2.559,2.752,2.559,4.636v76.291c0,13.4,10.906,24.306,24.306,24.306h66.515c13.4,0,24.306-10.906,24.306-24.306
				v-19.552c0-3.03,2.452-5.482,5.482-5.482h16.447c3.03,0,5.482,2.452,5.482,5.482v19.552
				C215.787,263.858,192.589,287.056,164.07,287.056z"/>
		</g>
	</g>
</g>
</svg>
